# xmcd
#
# Track frame offsets:
#	150
#	11692
#	23370
#	32477
#	42372
#	54382
#	70470
#	80057
#	90430
#	101495
#	114887
#	132522
#	142835
#	154015
#	165397
#	176475
#	186335
#	195842
#
# Disc length: 2742 seconds
#
# Revision: 9
# Processed by: cddbd v1.5.2PL0 Copyright (c) Steve Scherf et al.
# Submitted via: EZCDAudioConverter 1.3.4.1
#
DISCID=d80ab412
DTITLE=The Byrds - Mr. Tambourine Man
DYEAR=1965
DGENRE=
TTITLE0=Mr. Tambourine Man
TTITLE1=I'll Feel A Whole Lot Better
TTITLE2=Spanish Harlem Incident
TTITLE3=You Won't Have To Cry
TTITLE4=Here Without You
TTITLE5=The Bells Of Rhymney
TTITLE6=All I Really Want To Do
TTITLE7=I Knew I'd Want You
TTITLE8=It's No Use
TTITLE9=Don't Doubt Yourself, Babe
TTITLE10=Chimes Of Freedom
TTITLE11=We'll Meet Again
TTITLE12=She Has A Way [Take 2]
TTITLE13=I'll Feel A Whole Lot Better [Alternate Version]
TTITLE14=It's No Use [Alternate Version]
TTITLE15=You Won't Have To Cry [Alternate Version]
TTITLE16=All I Really Want To Do [Single]
TTITLE17=You And Me [Instrumental]
EXTD=
EXTT0=
EXTT1=
EXTT2=
EXTT3=
EXTT4=
EXTT5=
EXTT6=
EXTT7=
EXTT8=
EXTT9=
EXTT10=
EXTT11=
EXTT12=
EXTT13=
EXTT14=
EXTT15=
EXTT16=
EXTT17=
PLAYORDER=
